<svg width="25" height="25" viewBox="0 0 25 25" fill="none" xmlns="http://www.w3.org/2000/svg">
<path d="M13.95 3.03295C13.5442 2.69098 13.0307 2.50342 12.5 2.50342C11.9693 2.50342 11.4558 2.69098 11.05 3.03295L4.3 8.72795C4.04946 8.93911 3.84806 9.20243 3.70988 9.49952C3.5717 9.79661 3.50007 10.1203 3.5 10.448V19.753C3.5 20.719 4.284 21.503 5.25 21.503H8.25C8.71413 21.503 9.15925 21.3186 9.48744 20.9904C9.81563 20.6622 10 20.2171 10 19.753V15.75C10 15.07 10.542 14.518 11.217 14.5H13.783C14.1088 14.5086 14.4183 14.644 14.6456 14.8775C14.873 15.111 15.0001 15.4241 15 15.75V19.753C15 20.719 15.784 21.503 16.75 21.503H19.75C20.2141 21.503 20.6592 21.3186 20.9874 20.9904C21.3156 20.6622 21.5 20.2171 21.5 19.753V10.447C21.4999 10.1193 21.4283 9.79561 21.2901 9.49852C21.1519 9.20143 20.9505 8.93811 20.7 8.72695L13.95 3.03295Z" fill="#636363"/>
</svg>
