<svg width="21" height="21" viewBox="0 0 21 21" fill="none" xmlns="http://www.w3.org/2000/svg">
<path d="M7.875 9.41185C7.98936 9.34481 8.08416 9.24902 8.14995 9.13402C8.21574 9.01902 8.25024 8.88881 8.25 8.75636V2.01418C8.25105 1.89351 8.2229 1.77437 8.16794 1.6669C8.11298 1.55943 8.03284 1.46681 7.93433 1.39693C7.83583 1.32705 7.72189 1.28197 7.6022 1.26553C7.4825 1.24909 7.3606 1.26178 7.24688 1.30251C5.34809 1.97812 3.70473 3.22335 2.54173 4.86776C1.37874 6.51217 0.752942 8.4754 0.75 10.4887C0.751016 11.0853 0.804344 11.6806 0.909375 12.2679C0.931909 12.3852 0.981866 12.4956 1.05518 12.5899C1.12849 12.6843 1.22308 12.7601 1.33125 12.811C1.43107 12.858 1.53967 12.8836 1.65 12.8859C1.78189 12.8851 1.91124 12.8496 2.025 12.7829L7.875 9.41185ZM6.75 3.14724V8.32561L2.25938 10.9195C2.25 10.7697 2.25 10.6292 2.25 10.4887C2.25288 8.97028 2.67432 7.48195 3.4681 6.18694C4.26188 4.89193 5.39736 3.84026 6.75 3.14724Z" fill="#636363"/>
<path d="M18.9658 5.65681C18.9561 5.64635 18.9496 5.63336 18.9471 5.61935L18.9096 5.57253C18.0516 4.10517 16.8237 2.88786 15.3484 2.04176C13.873 1.19567 12.2014 0.750306 10.5002 0.75C10.3013 0.75 10.1105 0.828926 9.96985 0.969415C9.8292 1.1099 9.75018 1.30045 9.75018 1.49913V10.0579L2.33456 14.3374C2.24812 14.3851 2.17211 14.4496 2.111 14.527C2.04989 14.6045 2.00491 14.6934 1.9787 14.7885C1.9525 14.8836 1.9456 14.983 1.95841 15.0808C1.97122 15.1786 2.00349 15.2729 2.05331 15.358V15.3768L2.08143 15.4236C3.16288 17.2727 4.82438 18.7142 6.80876 19.525C8.79314 20.3358 10.9898 20.4707 13.0586 19.9087C15.1275 19.3468 16.9532 18.1194 18.2533 16.4165C19.5533 14.7136 20.2552 12.6302 20.2502 10.4887C20.2525 8.79359 19.8096 7.12753 18.9658 5.65681Z" fill="#636363"/>
</svg>
