<svg width="25" height="25" viewBox="0 0 25 25" fill="none" xmlns="http://www.w3.org/2000/svg">
<path d="M16.9356 3C20.1665 3 21.9905 4.83255 22 8.0635V16.9365C22 20.1665 20.1665 22 16.9356 22H8.0635C4.83255 22 3 20.1665 3 16.9365V8.0635C3 4.83255 4.83255 3 8.0635 3H16.9356ZM12.975 6.9235C12.708 6.762 12.3851 6.762 12.1295 6.9235C11.8721 7.08405 11.7305 7.3795 11.7581 7.674V17.3545C11.8065 17.763 12.1476 18.067 12.5466 18.067C12.956 18.067 13.2971 17.763 13.3351 17.3545V7.674C13.3731 7.3795 13.2315 7.08405 12.975 6.9235ZM8.5385 10.0395C8.282 9.878 7.95805 9.878 7.7025 10.0395C7.44505 10.201 7.3035 10.4946 7.332 10.79V17.3545C7.36905 17.763 7.71105 18.067 8.11955 18.067C8.529 18.067 8.87005 17.763 8.90805 17.3545V10.79C8.9375 10.4946 8.79405 10.201 8.5385 10.0395ZM17.3346 13.488C17.079 13.3265 16.756 13.3265 16.49 13.488C16.2326 13.6495 16.091 13.9336 16.129 14.2385V17.3545C16.167 17.763 16.5081 18.067 16.9175 18.067C17.3165 18.067 17.6575 17.763 17.706 17.3545V14.2385C17.7336 13.9336 17.592 13.6495 17.3346 13.488Z" fill="#636363"/>
</svg>
