<svg width="25" height="25" viewBox="0 0 25 25" fill="none" xmlns="http://www.w3.org/2000/svg">
<path d="M7.50049 7.99951C7.50049 5.24251 9.74349 2.99951 12.5005 2.99951C15.2575 2.99951 17.5005 5.24251 17.5005 7.99951C17.5005 10.7565 15.2575 12.9995 12.5005 12.9995C9.74349 12.9995 7.50049 10.7565 7.50049 7.99951ZM16.6175 14.0706C16.0585 13.9286 15.4505 14.0086 14.9475 14.2886C13.4295 15.1326 11.5715 15.1326 10.0535 14.2886C9.55147 14.0096 8.94248 13.9306 8.38348 14.0706C6.39148 14.5736 5.00049 16.3816 5.00049 18.4666V19.4775C5.00049 20.1155 5.17047 20.7394 5.49347 21.2834C5.75647 21.7254 6.2495 22.0005 6.7785 22.0005H18.2215C18.7505 22.0005 19.2435 21.7265 19.5065 21.2825C19.8295 20.7395 19.9995 20.1155 19.9995 19.4775V18.4666C20.0005 16.3816 18.6095 14.5736 16.6175 14.0706Z" fill="#636363"/>
</svg>
