<svg width="18" height="18" viewBox="0 0 18 18" fill="none" xmlns="http://www.w3.org/2000/svg">
<path d="M12.2864 6.20508H11.462C11.2827 6.20508 11.1122 6.29121 11.0067 6.43887L8.24346 10.2709L6.99189 8.53418C6.88642 8.38828 6.71767 8.30039 6.53661 8.30039H5.7122C5.59794 8.30039 5.53114 8.43047 5.59794 8.52363L7.78818 11.5611C7.83992 11.6334 7.90813 11.6922 7.98715 11.7328C8.06618 11.7734 8.15374 11.7946 8.24258 11.7946C8.33142 11.7946 8.41898 11.7734 8.498 11.7328C8.57702 11.6922 8.64523 11.6334 8.69697 11.5611L12.3989 6.42832C12.4675 6.33516 12.4007 6.20508 12.2864 6.20508Z" fill="#636366"/>
<path d="M9 1.125C4.65117 1.125 1.125 4.65117 1.125 9C1.125 13.3488 4.65117 16.875 9 16.875C13.3488 16.875 16.875 13.3488 16.875 9C16.875 4.65117 13.3488 1.125 9 1.125ZM9 15.5391C5.38945 15.5391 2.46094 12.6105 2.46094 9C2.46094 5.38945 5.38945 2.46094 9 2.46094C12.6105 2.46094 15.5391 5.38945 15.5391 9C15.5391 12.6105 12.6105 15.5391 9 15.5391Z" fill="#636366"/>
</svg>
