<svg width="23" height="29" viewBox="0 0 23 29" fill="none" xmlns="http://www.w3.org/2000/svg">
<mask id="mask0_1725_3785" style="mask-type:luminance" maskUnits="userSpaceOnUse" x="0" y="0" width="23" height="29">
<path d="M0 0H22.475V29H0V0Z" fill="white"/>
</mask>
<g mask="url(#mask0_1725_3785)">
<path d="M20.066 11.2065V8.82763C20.066 3.96107 16.1049 0 11.2383 0C6.37178 0 2.4092 3.96031 2.4092 8.82763V11.2065C1.07626 11.2428 0.00537109 12.3288 0.00537109 13.67V26.5297C0.00537109 26.6921 0.0212304 26.8522 0.0529492 27.0115C0.0846679 27.1709 0.131491 27.3249 0.193418 27.4752C0.255345 27.6248 0.331621 27.7675 0.421491 27.9019C0.512116 28.0371 0.614069 28.1617 0.728861 28.2765C0.843652 28.3913 0.968262 28.4933 1.10344 28.5839C1.23787 28.6737 1.38061 28.75 1.53014 28.812C1.68042 28.8739 1.83449 28.9207 1.99383 28.9524C2.15243 28.9841 2.31329 29 2.47566 29H19.9995C20.1619 29 20.3227 28.9841 20.4821 28.9524C20.6407 28.9207 20.7955 28.8739 20.945 28.812C21.0953 28.75 21.2373 28.6737 21.3725 28.5839C21.5069 28.4933 21.6315 28.3913 21.7463 28.2765C21.8611 28.1617 21.9638 28.0371 22.0537 27.9019C22.1435 27.7675 22.2198 27.6248 22.2818 27.4752C22.3444 27.3249 22.3913 27.1709 22.423 27.0115C22.4547 26.8529 22.4706 26.6921 22.4706 26.5297V13.67C22.4706 12.3288 21.3989 11.2428 20.066 11.2065ZM13.2585 18.3229C13.2472 18.3991 13.2049 18.5743 13.2004 18.5872C13.0501 19.1098 12.6891 19.5387 12.2216 19.8001L13.0146 23.1811C13.0259 23.2159 13.0327 23.2514 13.0365 23.2884C13.0395 23.3246 13.038 23.3609 13.0327 23.3971C13.0274 23.4341 13.0176 23.4689 13.004 23.5028C12.9904 23.5368 12.9731 23.5693 12.9519 23.5995C12.9308 23.629 12.9066 23.6561 12.8787 23.6803C12.8515 23.7052 12.8213 23.7256 12.7888 23.743C12.7563 23.7604 12.7223 23.7732 12.6868 23.783C12.6513 23.7921 12.6151 23.7974 12.5788 23.7981H9.95071C9.91446 23.7974 9.87821 23.7921 9.84272 23.783C9.80722 23.7732 9.77324 23.7604 9.74076 23.743C9.70829 23.7256 9.67808 23.7052 9.65089 23.6803C9.62295 23.6561 9.59878 23.629 9.57764 23.5995C9.55649 23.5693 9.53912 23.5368 9.52553 23.5028C9.51193 23.4689 9.50212 23.4334 9.49683 23.3971C9.49154 23.3609 9.49003 23.3246 9.49305 23.2884C9.49683 23.2514 9.50363 23.2159 9.51571 23.1811L10.2543 19.8001C9.78607 19.5387 9.42584 19.1098 9.27555 18.5872C9.27102 18.5743 9.22798 18.3991 9.2174 18.3229C9.20305 18.2285 9.19626 18.1333 9.19626 18.0382C9.19626 17.9045 9.2091 17.7716 9.23553 17.6402C9.2612 17.508 9.30048 17.3804 9.35107 17.2565C9.40243 17.1327 9.46587 17.0148 9.53988 16.9038C9.61464 16.7921 9.69923 16.6886 9.79363 16.5942C9.88878 16.499 9.99149 16.4145 10.1033 16.3404C10.215 16.2657 10.3321 16.203 10.4567 16.1516C10.5806 16.1003 10.7082 16.061 10.8396 16.0353C10.971 16.0089 11.1039 15.9961 11.2376 15.9961C11.372 15.9961 11.5049 16.0089 11.6363 16.0353C11.7677 16.061 11.8954 16.1003 12.0192 16.1516C12.1431 16.203 12.2609 16.2657 12.3719 16.3404C12.4837 16.4145 12.5871 16.499 12.6815 16.5942C12.7767 16.6886 12.8613 16.7921 12.9353 16.9038C13.0101 17.0148 13.0727 17.1327 13.1241 17.2565C13.1755 17.3804 13.214 17.508 13.2404 17.6402C13.2661 17.7716 13.2797 17.9045 13.2797 18.0382C13.2789 18.1333 13.2721 18.2285 13.2585 18.3229ZM17.0512 11.1997H5.42399V8.82763C5.42399 5.62102 8.03097 3.01253 11.2383 3.01253C14.4457 3.01253 17.0512 5.62102 17.0512 8.82763V11.1997Z" fill="#959090"/>
</g>
</svg>
