<svg width="28" height="28" viewBox="0 0 28 28" fill="none" xmlns="http://www.w3.org/2000/svg">
<circle cx="14" cy="14" r="14" fill="url(#paint0_radial_1725_9253)" fill-opacity="0.5"/>
<path fill-rule="evenodd" clip-rule="evenodd" d="M7.29279 7.29955C7.48031 7.11208 7.73462 7.00676 7.99979 7.00676C8.26495 7.00676 8.51926 7.11208 8.70679 7.29955L13.9998 12.5926L19.2928 7.29955C19.385 7.20404 19.4954 7.12786 19.6174 7.07545C19.7394 7.02304 19.8706 6.99545 20.0034 6.9943C20.1362 6.99315 20.2678 7.01845 20.3907 7.06873C20.5136 7.11901 20.6253 7.19326 20.7192 7.28716C20.8131 7.38105 20.8873 7.4927 20.9376 7.6156C20.9879 7.73849 21.0132 7.87017 21.012 8.00295C21.0109 8.13573 20.9833 8.26695 20.9309 8.38896C20.8785 8.51096 20.8023 8.6213 20.7068 8.71355L15.4138 14.0066L20.7068 19.2996C20.8889 19.4882 20.9897 19.7408 20.9875 20.003C20.9852 20.2651 20.88 20.516 20.6946 20.7014C20.5092 20.8868 20.2584 20.9919 19.9962 20.9942C19.734 20.9965 19.4814 20.8957 19.2928 20.7136L13.9998 15.4206L8.70679 20.7136C8.51818 20.8957 8.26558 20.9965 8.00339 20.9942C7.74119 20.9919 7.49038 20.8868 7.30497 20.7014C7.11956 20.516 7.01439 20.2651 7.01211 20.003C7.00983 19.7408 7.11063 19.4882 7.29279 19.2996L12.5858 14.0066L7.29279 8.71355C7.10532 8.52602 7 8.27172 7 8.00655C7 7.74139 7.10532 7.48708 7.29279 7.29955Z" fill="white"/>
<defs>
<radialGradient id="paint0_radial_1725_9253" cx="0" cy="0" r="1" gradientUnits="userSpaceOnUse" gradientTransform="translate(12.6 7.28) rotate(38.6598) scale(16.1359)">
<stop stop-color="#545659"/>
<stop offset="1" stop-color="#232629"/>
</radialGradient>
</defs>
</svg>
