<svg width="36" height="36" viewBox="0 0 36 36" fill="none" xmlns="http://www.w3.org/2000/svg">
<g clip-path="url(#clip0_1725_7824)">
<rect width="36" height="36" fill="white"/>
<path fill-rule="evenodd" clip-rule="evenodd" d="M18 34.5C27.1127 34.5 34.5 27.1127 34.5 18C34.5 8.8873 27.1127 1.5 18 1.5C8.8873 1.5 1.5 8.8873 1.5 18C1.5 27.1127 8.8873 34.5 18 34.5ZM18 36C27.9411 36 36 27.9411 36 18C36 8.05887 27.9411 0 18 0C8.05887 0 0 8.05887 0 18C0 27.9411 8.05887 36 18 36Z" fill="#A3A3A3"/>
<path d="M18.8111 14.8738C20.4602 14.9563 21.862 15.0387 23.0988 15.8633C23.5935 16.1931 23.9234 15.9458 24.3356 15.7808C26.1497 15.2861 27.4689 16.2756 27.0567 18.0896C26.6444 20.2335 25.9023 22.3773 24.1707 24.0264C22.604 25.4282 20.7076 26.0054 18.7286 26.0054C16.5023 26.0879 14.3585 25.5107 12.2971 24.4387C11.39 23.944 10.8129 23.1194 10.3181 22.2949C9.57602 20.9756 9.24617 19.4914 8.75144 18.0896C8.17425 16.5229 9.65847 15.2037 11.4725 15.5335C13.5339 15.9458 15.2655 14.6265 17.162 14.544C17.4918 14.544 17.6567 14.1317 17.7392 13.8019C17.9041 13.2247 18.1514 12.6475 18.3163 12.1528C18.976 10.3388 19.1409 10.1738 21.0374 10.6686C21.9444 10.9159 22.6041 10.751 23.4286 10.3388C24.4181 9.84402 25.2426 10.2563 25.7374 11.0808C26.2321 11.9879 26.0672 12.8949 25.1602 13.4721C24.4181 13.9668 23.5111 13.8844 22.8514 13.2247C22.604 12.9773 22.5216 12.6475 22.3567 12.4002C21.3672 11.2458 19.883 11.4931 19.3058 12.8949C19.3058 13.5545 19.0584 14.1317 18.8111 14.8738ZM21.4497 22.6247C20.2953 22.8721 19.2234 23.1194 18.1514 23.2843C16.9971 23.4492 16.0076 22.4598 14.7707 22.7072C16.7497 24.6861 19.883 24.6861 21.4497 22.6247ZM21.9444 18.9967C21.9444 18.4195 21.4497 18.0072 20.9549 18.0896C20.3777 18.1721 19.7181 18.9142 19.883 19.4914C20.0479 20.151 20.4602 20.2335 21.0374 20.2335C21.7795 20.2335 21.9444 19.6563 21.9444 18.9967ZM15.3479 18.0072C14.9356 18.337 14.4409 18.6668 14.4409 19.4089C14.5234 20.0686 14.8532 20.3984 15.5128 20.2335C16.1725 20.0686 16.5023 19.6563 16.5023 18.9967C16.5023 18.337 15.9251 18.1721 15.3479 18.0072ZM24.0882 11.2458C23.7584 11.3282 23.4286 11.5756 23.5111 12.1528C23.5935 12.73 24.0058 12.9773 24.5005 12.8949C24.9953 12.8124 25.1602 12.4002 25.0777 11.823C24.9953 11.4107 24.7479 11.1633 24.0882 11.2458Z" fill="#A3A3A3"/>
</g>
<defs>
<clipPath id="clip0_1725_7824">
<rect width="36" height="36" fill="white"/>
</clipPath>
</defs>
</svg>
