<svg width="52" height="52" viewBox="0 0 52 52" fill="none" xmlns="http://www.w3.org/2000/svg">
<circle cx="26" cy="26" r="26" fill="#25C73D"/>
<path d="M17.2867 15.1445C17.2437 14.7414 17.0621 14.4274 16.742 14.2028C16.425 13.9781 16.0126 13.8658 15.5048 13.8658C15.1478 13.8658 14.8415 13.9196 14.5861 14.0273C14.3307 14.1351 14.1352 14.2812 13.9998 14.4659C13.8644 14.6506 13.7951 14.8614 13.7921 15.0984C13.7921 15.2953 13.8367 15.4661 13.9259 15.6108C14.0183 15.7554 14.1429 15.8786 14.2999 15.9801C14.4568 16.0786 14.6307 16.1617 14.8215 16.2294C15.0124 16.2971 15.2047 16.354 15.3986 16.4002L16.285 16.6218C16.642 16.7049 16.9851 16.8172 17.3144 16.9588C17.6468 17.1004 17.9438 17.2789 18.2054 17.4943C18.4701 17.7098 18.6794 17.9698 18.8333 18.2745C18.9871 18.5792 19.0641 18.9362 19.0641 19.3455C19.0641 19.8995 18.9225 20.3873 18.6394 20.8089C18.3562 21.2275 17.9469 21.5553 17.4114 21.7923C16.879 22.0262 16.2342 22.1431 15.4771 22.1431C14.7415 22.1431 14.1029 22.0292 13.5612 21.8015C13.0227 21.5737 12.601 21.2414 12.2963 20.8043C11.9947 20.3673 11.8316 19.8349 11.807 19.207H13.492C13.5166 19.5363 13.6182 19.8103 13.7967 20.0288C13.9752 20.2473 14.2076 20.4104 14.4938 20.5181C14.7831 20.6258 15.1062 20.6797 15.4632 20.6797C15.8356 20.6797 16.1619 20.6243 16.4419 20.5135C16.7251 20.3996 16.9467 20.2427 17.1067 20.0426C17.2667 19.8395 17.3483 19.6025 17.3514 19.3317C17.3483 19.0855 17.276 18.8823 17.1344 18.7223C16.9928 18.5592 16.7943 18.4238 16.5389 18.3161C16.2865 18.2053 15.9911 18.1068 15.6525 18.0206L14.5769 17.7436C13.7982 17.5436 13.1827 17.2404 12.7303 16.8342C12.2809 16.4248 12.0563 15.8816 12.0563 15.2045C12.0563 14.6475 12.2071 14.1597 12.5087 13.7411C12.8134 13.3226 13.2273 12.9979 13.7505 12.767C14.2737 12.5331 14.8662 12.4162 15.5279 12.4162C16.1988 12.4162 16.7866 12.5331 17.2914 12.767C17.7992 12.9979 18.1977 13.3195 18.487 13.7319C18.7763 14.1412 18.9256 14.6121 18.9348 15.1445H17.2867ZM22.5576 22.1431C22.1083 22.1431 21.7036 22.0631 21.3435 21.9031C20.9865 21.7399 20.7033 21.4999 20.494 21.1829C20.2878 20.8659 20.1847 20.475 20.1847 20.0103C20.1847 19.6102 20.2586 19.2794 20.4063 19.0178C20.5541 18.7562 20.7556 18.5469 21.0111 18.3899C21.2665 18.233 21.5543 18.1145 21.8744 18.0344C22.1975 17.9513 22.5314 17.8913 22.8761 17.8544C23.2916 17.8113 23.6286 17.7728 23.8872 17.739C24.1457 17.7021 24.3334 17.6467 24.4504 17.5728C24.5704 17.4959 24.6304 17.3774 24.6304 17.2173V17.1896C24.6304 16.8419 24.5273 16.5726 24.3211 16.3817C24.1149 16.1909 23.8179 16.0955 23.4301 16.0955C23.0208 16.0955 22.6961 16.1848 22.456 16.3633C22.2191 16.5418 22.059 16.7526 21.9759 16.9957L20.4156 16.7741C20.5387 16.3433 20.7418 15.9832 21.0249 15.6939C21.3081 15.4015 21.6543 15.183 22.0636 15.0384C22.473 14.8906 22.9254 14.8168 23.4209 14.8168C23.7625 14.8168 24.1026 14.8568 24.4411 14.9368C24.7797 15.0168 25.089 15.1491 25.369 15.3338C25.6491 15.5154 25.8738 15.7631 26.043 16.0771C26.2154 16.391 26.3016 16.7834 26.3016 17.2543V22H24.695V21.0259H24.6396C24.5381 21.2229 24.395 21.4076 24.2103 21.5799C24.0287 21.7492 23.7994 21.8861 23.5224 21.9908C23.2485 22.0923 22.9269 22.1431 22.5576 22.1431ZM22.9916 20.9151C23.327 20.9151 23.6179 20.849 23.8641 20.7166C24.1103 20.5812 24.2996 20.4027 24.4319 20.1811C24.5673 19.9595 24.635 19.7179 24.635 19.4563V18.6207C24.5827 18.6638 24.4934 18.7038 24.3673 18.7408C24.2442 18.7777 24.1057 18.81 23.9518 18.8377C23.7979 18.8654 23.6456 18.89 23.4947 18.9116C23.3439 18.9331 23.2131 18.9516 23.1023 18.967C22.8531 19.0008 22.6299 19.0562 22.433 19.1332C22.236 19.2101 22.0806 19.3178 21.9667 19.4563C21.8528 19.5917 21.7959 19.7672 21.7959 19.9826C21.7959 20.2904 21.9082 20.5227 22.1329 20.6797C22.3576 20.8366 22.6438 20.9151 22.9916 20.9151ZM34.0619 14.9091L31.5367 22H29.6901L27.1648 14.9091H28.9468L30.5764 20.1765H30.6503L32.2845 14.9091H34.0619ZM38.1163 22.1385C37.4053 22.1385 36.7914 21.9908 36.2743 21.6953C35.7603 21.3968 35.3649 20.9751 35.0879 20.4304C34.8109 19.8826 34.6724 19.2378 34.6724 18.4961C34.6724 17.7667 34.8109 17.1265 35.0879 16.5756C35.3679 16.0217 35.7588 15.5908 36.2605 15.283C36.7621 14.9722 37.3515 14.8168 38.0286 14.8168C38.4656 14.8168 38.878 14.8875 39.2658 15.0291C39.6567 15.1676 40.0013 15.383 40.2999 15.6754C40.6015 15.9678 40.8385 16.3402 41.0108 16.7926C41.1832 17.242 41.2693 17.7775 41.2693 18.3991V18.9116H35.4572V17.7852H39.6674C39.6643 17.4651 39.5951 17.1804 39.4597 16.9311C39.3243 16.6787 39.135 16.4802 38.8919 16.3356C38.6518 16.1909 38.3717 16.1186 38.0517 16.1186C37.71 16.1186 37.41 16.2017 37.1514 16.3679C36.8929 16.531 36.6913 16.7464 36.5467 17.0142C36.4051 17.2789 36.3328 17.5697 36.3297 17.8867V18.87C36.3297 19.2824 36.4051 19.6364 36.5559 19.9318C36.7067 20.2242 36.9175 20.4489 37.1884 20.6058C37.4592 20.7597 37.7762 20.8366 38.1394 20.8366C38.3825 20.8366 38.6026 20.8028 38.7995 20.7351C38.9965 20.6643 39.1673 20.5612 39.312 20.4258C39.4566 20.2904 39.5659 20.1226 39.6397 19.9226L41.2001 20.098C41.1016 20.5104 40.9139 20.8705 40.6369 21.1783C40.363 21.483 40.0121 21.7199 39.5843 21.8892C39.1565 22.0554 38.6672 22.1385 38.1163 22.1385ZM13.7257 38V36.7628L17.008 33.5451C17.3219 33.2281 17.5835 32.9465 17.7928 32.7003C18.0021 32.4541 18.1591 32.2156 18.2637 31.9847C18.3683 31.7539 18.4207 31.5077 18.4207 31.2461C18.4207 30.9476 18.353 30.6921 18.2175 30.4798C18.0821 30.2643 17.8959 30.0981 17.6589 29.9812C17.422 29.8642 17.1527 29.8058 16.8511 29.8058C16.5402 29.8058 16.2678 29.8704 16.0339 29.9996C15.8 30.1258 15.6185 30.3059 15.4892 30.5398C15.363 30.7737 15.2999 31.0522 15.2999 31.3754H13.6703C13.6703 30.7752 13.8073 30.2536 14.0812 29.8104C14.3551 29.3672 14.7321 29.024 15.2122 28.7809C15.6954 28.5378 16.2494 28.4162 16.8741 28.4162C17.5081 28.4162 18.0652 28.5347 18.5453 28.7717C19.0254 29.0086 19.3978 29.3333 19.6625 29.7457C19.9303 30.1581 20.0641 30.629 20.0641 31.1584C20.0641 31.5123 19.9964 31.8601 19.861 32.2017C19.7256 32.5433 19.4871 32.9219 19.1455 33.3374C18.8069 33.7528 18.3314 34.256 17.719 34.8469L16.0893 36.5043V36.5689H20.2072V38H13.7257ZM25.0869 38.1293C24.4713 38.1293 23.9204 38.0138 23.4342 37.783C22.9479 37.5491 22.5616 37.229 22.2754 36.8228C21.9923 36.4165 21.8415 35.9518 21.823 35.4286H23.4849C23.5157 35.8164 23.6834 36.1334 23.9881 36.3796C24.2928 36.6228 24.6591 36.7443 25.0869 36.7443C25.4223 36.7443 25.7209 36.6674 25.9825 36.5135C26.2441 36.3596 26.4503 36.1457 26.6011 35.8718C26.7519 35.5979 26.8257 35.2855 26.8227 34.9347C26.8257 34.5777 26.7503 34.2607 26.5964 33.9837C26.4426 33.7067 26.2317 33.4897 25.964 33.3327C25.6962 33.1727 25.3885 33.0927 25.0407 33.0927C24.7575 33.0896 24.479 33.1419 24.2051 33.2496C23.9312 33.3574 23.7142 33.4989 23.5542 33.6744L22.0077 33.4205L22.5016 28.5455H27.986V29.9766H23.9189L23.6465 32.4833H23.7019C23.8773 32.2771 24.1251 32.1063 24.4452 31.9709C24.7652 31.8324 25.1161 31.7631 25.4977 31.7631C26.0702 31.7631 26.5811 31.8986 27.0304 32.1694C27.4797 32.4371 27.8337 32.8065 28.0922 33.2773C28.3507 33.7482 28.48 34.2868 28.48 34.8931C28.48 35.5179 28.3353 36.0749 28.046 36.5643C27.7598 37.0505 27.3612 37.4337 26.8504 37.7138C26.3425 37.9908 25.7547 38.1293 25.0869 38.1293ZM35.0815 36.2273V35.7287C35.0815 35.3625 35.1585 35.0254 35.3124 34.7177C35.4693 34.4099 35.6971 34.1622 35.9956 33.9744C36.2941 33.7867 36.6557 33.6928 37.0805 33.6928C37.5175 33.6928 37.8837 33.7867 38.1792 33.9744C38.4746 34.1591 38.6978 34.4053 38.8486 34.7131C39.0025 35.0208 39.0794 35.3594 39.0794 35.7287V36.2273C39.0794 36.5935 39.0025 36.9305 38.8486 37.2383C38.6947 37.546 38.4685 37.7938 38.17 37.9815C37.8745 38.1693 37.5113 38.2631 37.0805 38.2631C36.6496 38.2631 36.2849 38.1693 35.9864 37.9815C35.6878 37.7938 35.4616 37.546 35.3077 37.2383C35.1569 36.9305 35.0815 36.5935 35.0815 36.2273ZM36.2864 35.7287V36.2273C36.2864 36.4704 36.3449 36.6935 36.4619 36.8967C36.5788 37.0998 36.785 37.2013 37.0805 37.2013C37.379 37.2013 37.5837 37.1013 37.6945 36.9013C37.8083 36.6982 37.8653 36.4735 37.8653 36.2273V35.7287C37.8653 35.4825 37.8114 35.2578 37.7037 35.0547C37.596 34.8485 37.3882 34.7454 37.0805 34.7454C36.7912 34.7454 36.5865 34.8485 36.4665 35.0547C36.3464 35.2578 36.2864 35.4825 36.2864 35.7287ZM30.2758 30.8168V30.3182C30.2758 29.9489 30.3543 29.6103 30.5112 29.3026C30.6682 28.9948 30.8959 28.7486 31.1945 28.5639C31.493 28.3762 31.8546 28.2823 32.2793 28.2823C32.7133 28.2823 33.078 28.3762 33.3734 28.5639C33.672 28.7486 33.8966 28.9948 34.0474 29.3026C34.1982 29.6103 34.2736 29.9489 34.2736 30.3182V30.8168C34.2736 31.1861 34.1967 31.5246 34.0428 31.8324C33.892 32.1371 33.6673 32.3817 33.3688 32.5664C33.0703 32.7511 32.7071 32.8434 32.2793 32.8434C31.8454 32.8434 31.4791 32.7511 31.1806 32.5664C30.8852 32.3817 30.6605 32.1355 30.5066 31.8278C30.3527 31.52 30.2758 31.183 30.2758 30.8168ZM31.4899 30.3182V30.8168C31.4899 31.063 31.5468 31.2876 31.6607 31.4908C31.7777 31.6908 31.9839 31.7908 32.2793 31.7908C32.5748 31.7908 32.7779 31.6908 32.8887 31.4908C33.0026 31.2876 33.0595 31.063 33.0595 30.8168V30.3182C33.0595 30.072 33.0057 29.8473 32.8979 29.6442C32.7902 29.438 32.584 29.3349 32.2793 29.3349C31.987 29.3349 31.7823 29.438 31.6653 29.6442C31.5484 29.8504 31.4899 30.075 31.4899 30.3182ZM30.8021 38L37.3021 28.5455H38.4562L31.9562 38H30.8021Z" fill="white"/>
</svg>
