<svg width="52" height="52" viewBox="0 0 52 52" fill="none" xmlns="http://www.w3.org/2000/svg">
<circle cx="26" cy="26" r="26" fill="#25C73D"/>
<path d="M17.2867 15.1445C17.2437 14.7414 17.0621 14.4274 16.742 14.2028C16.425 13.9781 16.0126 13.8658 15.5048 13.8658C15.1478 13.8658 14.8415 13.9196 14.5861 14.0273C14.3307 14.1351 14.1352 14.2812 13.9998 14.4659C13.8644 14.6506 13.7951 14.8614 13.7921 15.0984C13.7921 15.2953 13.8367 15.4661 13.9259 15.6108C14.0183 15.7554 14.1429 15.8786 14.2999 15.9801C14.4568 16.0786 14.6307 16.1617 14.8215 16.2294C15.0124 16.2971 15.2047 16.354 15.3986 16.4002L16.285 16.6218C16.642 16.7049 16.9851 16.8172 17.3144 16.9588C17.6468 17.1004 17.9438 17.2789 18.2054 17.4943C18.4701 17.7098 18.6794 17.9698 18.8333 18.2745C18.9871 18.5792 19.0641 18.9362 19.0641 19.3455C19.0641 19.8995 18.9225 20.3873 18.6394 20.8089C18.3562 21.2275 17.9469 21.5553 17.4114 21.7923C16.879 22.0262 16.2342 22.1431 15.4771 22.1431C14.7415 22.1431 14.1029 22.0292 13.5612 21.8015C13.0227 21.5737 12.601 21.2414 12.2963 20.8043C11.9947 20.3673 11.8316 19.8349 11.807 19.207H13.492C13.5166 19.5363 13.6182 19.8103 13.7967 20.0288C13.9752 20.2473 14.2076 20.4104 14.4938 20.5181C14.7831 20.6258 15.1062 20.6797 15.4632 20.6797C15.8356 20.6797 16.1619 20.6243 16.4419 20.5135C16.7251 20.3996 16.9467 20.2427 17.1067 20.0426C17.2667 19.8395 17.3483 19.6025 17.3514 19.3317C17.3483 19.0855 17.276 18.8823 17.1344 18.7223C16.9928 18.5592 16.7943 18.4238 16.5389 18.3161C16.2865 18.2053 15.9911 18.1068 15.6525 18.0206L14.5769 17.7436C13.7982 17.5436 13.1827 17.2404 12.7303 16.8342C12.2809 16.4248 12.0563 15.8816 12.0563 15.2045C12.0563 14.6475 12.2071 14.1597 12.5087 13.7411C12.8134 13.3226 13.2273 12.9979 13.7505 12.767C14.2737 12.5331 14.8662 12.4162 15.5279 12.4162C16.1988 12.4162 16.7866 12.5331 17.2914 12.767C17.7992 12.9979 18.1977 13.3195 18.487 13.7319C18.7763 14.1412 18.9256 14.6121 18.9348 15.1445H17.2867ZM22.5576 22.1431C22.1083 22.1431 21.7036 22.0631 21.3435 21.9031C20.9865 21.7399 20.7033 21.4999 20.494 21.1829C20.2878 20.8659 20.1847 20.475 20.1847 20.0103C20.1847 19.6102 20.2586 19.2794 20.4063 19.0178C20.5541 18.7562 20.7556 18.5469 21.0111 18.3899C21.2665 18.233 21.5543 18.1145 21.8744 18.0344C22.1975 17.9513 22.5314 17.8913 22.8761 17.8544C23.2916 17.8113 23.6286 17.7728 23.8872 17.739C24.1457 17.7021 24.3334 17.6467 24.4504 17.5728C24.5704 17.4959 24.6304 17.3774 24.6304 17.2173V17.1896C24.6304 16.8419 24.5273 16.5726 24.3211 16.3817C24.1149 16.1909 23.8179 16.0955 23.4301 16.0955C23.0208 16.0955 22.6961 16.1848 22.456 16.3633C22.2191 16.5418 22.059 16.7526 21.9759 16.9957L20.4156 16.7741C20.5387 16.3433 20.7418 15.9832 21.0249 15.6939C21.3081 15.4015 21.6543 15.183 22.0636 15.0384C22.473 14.8906 22.9254 14.8168 23.4209 14.8168C23.7625 14.8168 24.1026 14.8568 24.4411 14.9368C24.7797 15.0168 25.089 15.1491 25.369 15.3338C25.6491 15.5154 25.8738 15.7631 26.043 16.0771C26.2154 16.391 26.3016 16.7834 26.3016 17.2543V22H24.695V21.0259H24.6396C24.5381 21.2229 24.395 21.4076 24.2103 21.5799C24.0287 21.7492 23.7994 21.8861 23.5224 21.9908C23.2485 22.0923 22.9269 22.1431 22.5576 22.1431ZM22.9916 20.9151C23.327 20.9151 23.6179 20.849 23.8641 20.7166C24.1103 20.5812 24.2996 20.4027 24.4319 20.1811C24.5673 19.9595 24.635 19.7179 24.635 19.4563V18.6207C24.5827 18.6638 24.4934 18.7038 24.3673 18.7408C24.2442 18.7777 24.1057 18.81 23.9518 18.8377C23.7979 18.8654 23.6456 18.89 23.4947 18.9116C23.3439 18.9331 23.2131 18.9516 23.1023 18.967C22.8531 19.0008 22.6299 19.0562 22.433 19.1332C22.236 19.2101 22.0806 19.3178 21.9667 19.4563C21.8528 19.5917 21.7959 19.7672 21.7959 19.9826C21.7959 20.2904 21.9082 20.5227 22.1329 20.6797C22.3576 20.8366 22.6438 20.9151 22.9916 20.9151ZM34.0619 14.9091L31.5367 22H29.6901L27.1648 14.9091H28.9468L30.5764 20.1765H30.6503L32.2845 14.9091H34.0619ZM38.1163 22.1385C37.4053 22.1385 36.7914 21.9908 36.2743 21.6953C35.7603 21.3968 35.3649 20.9751 35.0879 20.4304C34.8109 19.8826 34.6724 19.2378 34.6724 18.4961C34.6724 17.7667 34.8109 17.1265 35.0879 16.5756C35.3679 16.0217 35.7588 15.5908 36.2605 15.283C36.7621 14.9722 37.3515 14.8168 38.0286 14.8168C38.4656 14.8168 38.878 14.8875 39.2658 15.0291C39.6567 15.1676 40.0013 15.383 40.2999 15.6754C40.6015 15.9678 40.8385 16.3402 41.0108 16.7926C41.1832 17.242 41.2693 17.7775 41.2693 18.3991V18.9116H35.4572V17.7852H39.6674C39.6643 17.4651 39.5951 17.1804 39.4597 16.9311C39.3243 16.6787 39.135 16.4802 38.8919 16.3356C38.6518 16.1909 38.3717 16.1186 38.0517 16.1186C37.71 16.1186 37.41 16.2017 37.1514 16.3679C36.8929 16.531 36.6913 16.7464 36.5467 17.0142C36.4051 17.2789 36.3328 17.5697 36.3297 17.8867V18.87C36.3297 19.2824 36.4051 19.6364 36.5559 19.9318C36.7067 20.2242 36.9175 20.4489 37.1884 20.6058C37.4592 20.7597 37.7762 20.8366 38.1394 20.8366C38.3825 20.8366 38.6026 20.8028 38.7995 20.7351C38.9965 20.6643 39.1673 20.5612 39.312 20.4258C39.4566 20.2904 39.5659 20.1226 39.6397 19.9226L41.2001 20.098C41.1016 20.5104 40.9139 20.8705 40.6369 21.1783C40.363 21.483 40.0121 21.7199 39.5843 21.8892C39.1565 22.0554 38.6672 22.1385 38.1163 22.1385ZM14.3576 38L18.3785 30.0412V29.9766H13.7113V28.5455H20.1513V30.0089L16.1349 38H14.3576ZM24.8012 38.1293C24.1857 38.1293 23.6348 38.0138 23.1485 37.783C22.6622 37.5491 22.276 37.229 21.9898 36.8228C21.7066 36.4165 21.5558 35.9518 21.5374 35.4286H23.1993C23.2301 35.8164 23.3978 36.1334 23.7025 36.3796C24.0072 36.6228 24.3734 36.7443 24.8012 36.7443C25.1367 36.7443 25.4352 36.6674 25.6968 36.5135C25.9584 36.3596 26.1646 36.1457 26.3154 35.8718C26.4662 35.5979 26.5401 35.2855 26.537 34.9347C26.5401 34.5777 26.4647 34.2607 26.3108 33.9837C26.1569 33.7067 25.9461 33.4897 25.6783 33.3327C25.4106 33.1727 25.1028 33.0927 24.755 33.0927C24.4719 33.0896 24.1934 33.1419 23.9195 33.2496C23.6456 33.3574 23.4286 33.4989 23.2685 33.6744L21.722 33.4205L22.216 28.5455H27.7004V29.9766H23.6332L23.3609 32.4833H23.4163C23.5917 32.2771 23.8394 32.1063 24.1595 31.9709C24.4796 31.8324 24.8305 31.7631 25.2121 31.7631C25.7845 31.7631 26.2954 31.8986 26.7447 32.1694C27.1941 32.4371 27.548 32.8065 27.8065 33.2773C28.0651 33.7482 28.1943 34.2868 28.1943 34.8931C28.1943 35.5179 28.0497 36.0749 27.7604 36.5643C27.4742 37.0505 27.0756 37.4337 26.5647 37.7138C26.0569 37.9908 25.4691 38.1293 24.8012 38.1293ZM34.7959 36.2273V35.7287C34.7959 35.3625 34.8728 35.0254 35.0267 34.7177C35.1837 34.4099 35.4114 34.1622 35.7099 33.9744C36.0085 33.7867 36.3701 33.6928 36.7948 33.6928C37.2318 33.6928 37.5981 33.7867 37.8935 33.9744C38.189 34.1591 38.4121 34.4053 38.5629 34.7131C38.7168 35.0208 38.7938 35.3594 38.7938 35.7287V36.2273C38.7938 36.5935 38.7168 36.9305 38.5629 37.2383C38.409 37.546 38.1828 37.7938 37.8843 37.9815C37.5889 38.1693 37.2257 38.2631 36.7948 38.2631C36.3639 38.2631 35.9992 38.1693 35.7007 37.9815C35.4022 37.7938 35.176 37.546 35.0221 37.2383C34.8713 36.9305 34.7959 36.5935 34.7959 36.2273ZM36.0008 35.7287V36.2273C36.0008 36.4704 36.0593 36.6935 36.1762 36.8967C36.2932 37.0998 36.4994 37.2013 36.7948 37.2013C37.0934 37.2013 37.298 37.1013 37.4088 36.9013C37.5227 36.6982 37.5796 36.4735 37.5796 36.2273V35.7287C37.5796 35.4825 37.5258 35.2578 37.418 35.0547C37.3103 34.8485 37.1026 34.7454 36.7948 34.7454C36.5055 34.7454 36.3009 34.8485 36.1808 35.0547C36.0608 35.2578 36.0008 35.4825 36.0008 35.7287ZM29.9901 30.8168V30.3182C29.9901 29.9489 30.0686 29.6103 30.2256 29.3026C30.3825 28.9948 30.6103 28.7486 30.9088 28.5639C31.2073 28.3762 31.569 28.2823 31.9937 28.2823C32.4276 28.2823 32.7923 28.3762 33.0878 28.5639C33.3863 28.7486 33.611 28.9948 33.7618 29.3026C33.9126 29.6103 33.988 29.9489 33.988 30.3182V30.8168C33.988 31.1861 33.9111 31.5246 33.7572 31.8324C33.6064 32.1371 33.3817 32.3817 33.0832 32.5664C32.7846 32.7511 32.4215 32.8434 31.9937 32.8434C31.5597 32.8434 31.1935 32.7511 30.895 32.5664C30.5995 32.3817 30.3748 32.1355 30.221 31.8278C30.0671 31.52 29.9901 31.183 29.9901 30.8168ZM31.2043 30.3182V30.8168C31.2043 31.063 31.2612 31.2876 31.3751 31.4908C31.492 31.6908 31.6982 31.7908 31.9937 31.7908C32.2891 31.7908 32.4923 31.6908 32.6031 31.4908C32.7169 31.2876 32.7739 31.063 32.7739 30.8168V30.3182C32.7739 30.072 32.72 29.8473 32.6123 29.6442C32.5046 29.438 32.2984 29.3349 31.9937 29.3349C31.7013 29.3349 31.4966 29.438 31.3797 29.6442C31.2627 29.8504 31.2043 30.075 31.2043 30.3182ZM30.5164 38L37.0164 28.5455H38.1705L31.6705 38H30.5164Z" fill="white"/>
</svg>
