<svg width="28" height="28" viewBox="0 0 28 28" fill="none" xmlns="http://www.w3.org/2000/svg">
<circle cx="14" cy="14" r="14" fill="url(#paint0_radial_1725_4176)" fill-opacity="0.5"/>
<path fill-rule="evenodd" clip-rule="evenodd" d="M16 7.00006C15.7348 7.00006 15.4805 7.10541 15.2929 7.29295C15.1054 7.48049 15 7.73484 15 8.00006C15 8.26527 15.1054 8.51963 15.2929 8.70716C15.4805 8.8947 15.7348 9.00006 16 9.00006C16.2653 9.00006 16.5196 8.8947 16.7072 8.70716C16.8947 8.51963 17 8.26527 17 8.00006C17 7.73484 16.8947 7.48049 16.7072 7.29295C16.5196 7.10541 16.2653 7.00006 16 7.00006ZM13 8.00006C13 7.34966 13.2114 6.71688 13.6023 6.19705C13.9931 5.67721 14.5424 5.29849 15.1672 5.11793C15.792 4.93736 16.4586 4.96475 17.0665 5.19596C17.6744 5.42717 18.1907 5.84967 18.5376 6.39982C18.8846 6.94997 19.0433 7.59795 18.9899 8.24616C18.9366 8.89436 18.674 9.50766 18.2418 9.99366C17.8095 10.4797 17.2311 10.812 16.5936 10.9407C15.956 11.0694 15.2939 10.9874 14.707 10.7071L12.707 12.7071C12.895 13.0981 13 13.5371 13 14.0001C13 14.4631 12.895 14.9021 12.707 15.2931L14.707 17.2931C15.3456 16.988 16.0715 16.9186 16.7563 17.097C17.4412 17.2754 18.0409 17.6902 18.4495 18.268C18.8581 18.8458 19.0493 19.5495 18.9893 20.2546C18.9292 20.9598 18.6218 21.621 18.1214 22.1214C17.621 22.6218 16.9598 22.9292 16.2546 22.9893C15.5495 23.0493 14.8458 22.8581 14.268 22.4495C13.6901 22.0409 13.2754 21.4412 13.097 20.7564C12.9186 20.0715 12.988 19.3456 13.293 18.7071L11.293 16.7071C10.8358 16.9253 10.3306 17.0241 9.82481 16.9944C9.31899 16.9646 8.82894 16.8072 8.40038 16.5369C7.97183 16.2666 7.61873 15.8921 7.37402 15.4484C7.12932 15.0047 7.00098 14.5063 7.00098 13.9996C7.00098 13.4929 7.12932 12.9944 7.37402 12.5507C7.61873 12.107 7.97183 11.7326 8.40038 11.4622C8.82894 11.1919 9.31899 11.0345 9.82481 11.0047C10.3306 10.975 10.8358 11.0738 11.293 11.2921L13.293 9.29306C13.0999 8.88941 12.9997 8.44755 13 8.00006ZM10 13.0001C9.73483 13.0001 9.48048 13.1054 9.29294 13.2929C9.1054 13.4805 9.00005 13.7348 9.00005 14.0001C9.00005 14.2653 9.1054 14.5196 9.29294 14.7072C9.48048 14.8947 9.73483 15.0001 10 15.0001C10.2653 15.0001 10.5196 14.8947 10.7072 14.7072C10.8947 14.5196 11 14.2653 11 14.0001C11 13.7348 10.8947 13.4805 10.7072 13.2929C10.5196 13.1054 10.2653 13.0001 10 13.0001ZM16 19.0001C15.8687 18.9998 15.7386 19.0255 15.6172 19.0758C15.4959 19.1261 15.3857 19.1999 15.293 19.2931C15.1295 19.4567 15.0277 19.672 15.0051 19.9022C14.9824 20.1324 15.0403 20.3634 15.1689 20.5558C15.2975 20.7481 15.4887 20.8899 15.7101 20.957C15.9316 21.0242 16.1694 21.0124 16.3831 20.9239C16.5968 20.8353 16.7732 20.6753 16.8823 20.4713C16.9913 20.2672 17.0262 20.0317 16.981 19.8048C16.9358 19.5779 16.8134 19.3736 16.6345 19.2269C16.4556 19.0802 16.2314 19 16 19.0001Z" fill="white"/>
<defs>
<radialGradient id="paint0_radial_1725_4176" cx="0" cy="0" r="1" gradientUnits="userSpaceOnUse" gradientTransform="translate(12.6 7.28) rotate(38.6598) scale(16.1359)">
<stop stop-color="#545659"/>
<stop offset="1" stop-color="#232629"/>
</radialGradient>
</defs>
</svg>
