<svg width="343" height="168" viewBox="0 0 343 168" fill="none" xmlns="http://www.w3.org/2000/svg">
<rect x="0.5" y="0.5" width="342" height="167" rx="7.5" stroke="#919294" stroke-dasharray="4 4"/>
<path d="M163.228 84.0434C160.832 83.8885 158.555 83.0999 156.723 81.7903C154.891 80.4808 153.597 78.7172 153.025 76.7513C152.454 74.7855 152.635 72.718 153.543 70.8439C154.45 68.9699 156.037 67.3852 158.078 66.3161C158.512 63.4651 160.165 60.845 162.728 58.9462C165.29 57.0474 168.586 56 172 56C175.413 56 178.709 57.0474 181.272 58.9462C183.834 60.845 185.487 63.4651 185.922 66.3161C187.962 67.3852 189.55 68.9699 190.457 70.8439C191.364 72.718 191.545 74.7855 190.974 76.7513C190.403 78.7172 189.109 80.4808 187.277 81.7903C185.444 83.0999 183.167 83.8885 180.771 84.0434V84.0715H163.228V84.0434ZM173.754 72.2533H179.017L172 64.8669L164.983 72.2533H170.246V78.1624H173.754V72.2533Z" fill="white"/>
<path d="M112.045 96.4349H113.455V104.139C113.455 104.935 113.267 105.645 112.892 106.27C112.521 106.891 111.996 107.382 111.318 107.742C110.64 108.098 109.845 108.276 108.932 108.276C108.019 108.276 107.223 108.098 106.545 107.742C105.867 107.382 105.341 106.891 104.966 106.27C104.595 105.645 104.409 104.935 104.409 104.139V96.4349H105.818V104.026C105.818 104.594 105.943 105.1 106.193 105.543C106.443 105.982 106.799 106.329 107.261 106.583C107.727 106.833 108.284 106.958 108.932 106.958C109.58 106.958 110.136 106.833 110.602 106.583C111.068 106.329 111.424 105.982 111.67 105.543C111.92 105.1 112.045 104.594 112.045 104.026V96.4349ZM116.087 111.344V99.344H117.382V100.73H117.541C117.64 100.579 117.776 100.386 117.95 100.151C118.128 99.9122 118.382 99.7001 118.712 99.5145C119.045 99.3251 119.496 99.2304 120.064 99.2304C120.799 99.2304 121.446 99.4141 122.007 99.7815C122.568 100.149 123.005 100.67 123.32 101.344C123.634 102.018 123.791 102.814 123.791 103.73C123.791 104.655 123.634 105.456 123.32 106.134C123.005 106.808 122.57 107.331 122.013 107.702C121.456 108.069 120.814 108.253 120.087 108.253C119.526 108.253 119.077 108.16 118.74 107.975C118.403 107.785 118.143 107.571 117.962 107.333C117.78 107.09 117.64 106.889 117.541 106.73H117.428V111.344H116.087ZM117.405 103.708C117.405 104.367 117.501 104.948 117.695 105.452C117.888 105.952 118.17 106.344 118.541 106.628C118.912 106.908 119.367 107.049 119.905 107.049C120.465 107.049 120.933 106.901 121.308 106.605C121.687 106.306 121.971 105.905 122.161 105.401C122.354 104.893 122.45 104.329 122.45 103.708C122.45 103.094 122.356 102.541 122.166 102.049C121.981 101.552 121.698 101.16 121.32 100.872C120.945 100.581 120.473 100.435 119.905 100.435C119.359 100.435 118.901 100.573 118.53 100.85C118.159 101.122 117.878 101.505 117.689 101.997C117.5 102.486 117.405 103.056 117.405 103.708ZM127.178 96.4349V108.071H125.837V96.4349H127.178ZM133.179 108.253C132.391 108.253 131.7 108.066 131.105 107.691C130.514 107.316 130.052 106.791 129.719 106.117C129.389 105.443 129.224 104.655 129.224 103.753C129.224 102.844 129.389 102.05 129.719 101.372C130.052 100.694 130.514 100.168 131.105 99.7929C131.7 99.4179 132.391 99.2304 133.179 99.2304C133.967 99.2304 134.656 99.4179 135.247 99.7929C135.842 100.168 136.304 100.694 136.634 101.372C136.967 102.05 137.134 102.844 137.134 103.753C137.134 104.655 136.967 105.443 136.634 106.117C136.304 106.791 135.842 107.316 135.247 107.691C134.656 108.066 133.967 108.253 133.179 108.253ZM133.179 107.049C133.777 107.049 134.27 106.895 134.656 106.588C135.043 106.282 135.329 105.878 135.514 105.378C135.7 104.878 135.793 104.336 135.793 103.753C135.793 103.17 135.7 102.626 135.514 102.122C135.329 101.619 135.043 101.211 134.656 100.901C134.27 100.59 133.777 100.435 133.179 100.435C132.58 100.435 132.088 100.59 131.702 100.901C131.315 101.211 131.029 101.619 130.844 102.122C130.658 102.626 130.565 103.17 130.565 103.753C130.565 104.336 130.658 104.878 130.844 105.378C131.029 105.878 131.315 106.282 131.702 106.588C132.088 106.895 132.58 107.049 133.179 107.049ZM141.749 108.276C141.196 108.276 140.694 108.172 140.243 107.963C139.792 107.751 139.434 107.446 139.169 107.049C138.904 106.647 138.771 106.162 138.771 105.594C138.771 105.094 138.87 104.689 139.067 104.378C139.264 104.064 139.527 103.818 139.857 103.639C140.186 103.461 140.55 103.329 140.947 103.242C141.349 103.151 141.752 103.079 142.158 103.026C142.688 102.958 143.118 102.907 143.447 102.872C143.781 102.835 144.023 102.772 144.175 102.685C144.33 102.598 144.408 102.446 144.408 102.23V102.185C144.408 101.624 144.254 101.189 143.947 100.878C143.644 100.568 143.184 100.412 142.567 100.412C141.927 100.412 141.425 100.552 141.061 100.833C140.697 101.113 140.442 101.412 140.294 101.73L139.021 101.276C139.249 100.746 139.552 100.333 139.93 100.037C140.313 99.738 140.73 99.5296 141.18 99.4122C141.635 99.291 142.082 99.2304 142.521 99.2304C142.802 99.2304 143.124 99.2645 143.487 99.3327C143.855 99.397 144.209 99.5315 144.55 99.7361C144.894 99.9406 145.18 100.249 145.408 100.662C145.635 101.075 145.749 101.628 145.749 102.321V108.071H144.408V106.889H144.339C144.249 107.079 144.097 107.282 143.885 107.497C143.673 107.713 143.391 107.897 143.038 108.049C142.686 108.2 142.256 108.276 141.749 108.276ZM141.953 107.071C142.483 107.071 142.93 106.967 143.294 106.759C143.661 106.55 143.938 106.282 144.124 105.952C144.313 105.622 144.408 105.276 144.408 104.912V103.685C144.351 103.753 144.226 103.816 144.033 103.872C143.843 103.925 143.624 103.973 143.374 104.014C143.127 104.052 142.887 104.086 142.652 104.117C142.421 104.143 142.233 104.166 142.089 104.185C141.741 104.23 141.415 104.304 141.112 104.407C140.813 104.505 140.571 104.655 140.385 104.855C140.203 105.052 140.112 105.321 140.112 105.662C140.112 106.128 140.285 106.48 140.629 106.719C140.978 106.954 141.419 107.071 141.953 107.071ZM151.491 108.253C150.764 108.253 150.122 108.069 149.565 107.702C149.009 107.331 148.573 106.808 148.259 106.134C147.944 105.456 147.787 104.655 147.787 103.73C147.787 102.814 147.944 102.018 148.259 101.344C148.573 100.67 149.01 100.149 149.571 99.7815C150.132 99.4141 150.779 99.2304 151.514 99.2304C152.082 99.2304 152.531 99.3251 152.861 99.5145C153.194 99.7001 153.448 99.9122 153.622 100.151C153.8 100.386 153.938 100.579 154.037 100.73H154.151V96.4349H155.491V108.071H154.196V106.73H154.037C153.938 106.889 153.798 107.09 153.616 107.333C153.435 107.571 153.175 107.785 152.838 107.975C152.501 108.16 152.052 108.253 151.491 108.253ZM151.673 107.049C152.211 107.049 152.666 106.908 153.037 106.628C153.408 106.344 153.69 105.952 153.884 105.452C154.077 104.948 154.173 104.367 154.173 103.708C154.173 103.056 154.079 102.486 153.889 101.997C153.7 101.505 153.42 101.122 153.048 100.85C152.677 100.573 152.219 100.435 151.673 100.435C151.105 100.435 150.632 100.581 150.253 100.872C149.878 101.16 149.596 101.552 149.406 102.049C149.221 102.541 149.128 103.094 149.128 103.708C149.128 104.329 149.223 104.893 149.412 105.401C149.605 105.905 149.889 106.306 150.264 106.605C150.643 106.901 151.113 107.049 151.673 107.049ZM163.497 111.344C163.27 111.344 163.067 111.325 162.889 111.287C162.711 111.253 162.588 111.219 162.52 111.185L162.861 110.003C163.187 110.086 163.474 110.117 163.724 110.094C163.974 110.071 164.196 109.96 164.389 109.759C164.586 109.562 164.766 109.242 164.929 108.799L165.179 108.117L161.952 99.344H163.406L165.815 106.299H165.906L168.315 99.344H169.77L166.065 109.344C165.899 109.795 165.692 110.168 165.446 110.463C165.2 110.763 164.914 110.984 164.588 111.128C164.266 111.272 163.902 111.344 163.497 111.344ZM174.773 108.253C173.985 108.253 173.294 108.066 172.699 107.691C172.108 107.316 171.646 106.791 171.312 106.117C170.983 105.443 170.818 104.655 170.818 103.753C170.818 102.844 170.983 102.05 171.312 101.372C171.646 100.694 172.108 100.168 172.699 99.7929C173.294 99.4179 173.985 99.2304 174.773 99.2304C175.561 99.2304 176.25 99.4179 176.841 99.7929C177.436 100.168 177.898 100.694 178.227 101.372C178.561 102.05 178.727 102.844 178.727 103.753C178.727 104.655 178.561 105.443 178.227 106.117C177.898 106.791 177.436 107.316 176.841 107.691C176.25 108.066 175.561 108.253 174.773 108.253ZM174.773 107.049C175.371 107.049 175.864 106.895 176.25 106.588C176.636 106.282 176.922 105.878 177.108 105.378C177.294 104.878 177.386 104.336 177.386 103.753C177.386 103.17 177.294 102.626 177.108 102.122C176.922 101.619 176.636 101.211 176.25 100.901C175.864 100.59 175.371 100.435 174.773 100.435C174.174 100.435 173.682 100.59 173.295 100.901C172.909 101.211 172.623 101.619 172.438 102.122C172.252 102.626 172.159 103.17 172.159 103.753C172.159 104.336 172.252 104.878 172.438 105.378C172.623 105.878 172.909 106.282 173.295 106.588C173.682 106.895 174.174 107.049 174.773 107.049ZM186.274 104.503V99.344H187.615V108.071H186.274V106.594H186.183C185.979 107.037 185.661 107.414 185.229 107.725C184.797 108.032 184.251 108.185 183.592 108.185C183.047 108.185 182.562 108.066 182.138 107.827C181.714 107.585 181.38 107.221 181.138 106.736C180.895 106.247 180.774 105.632 180.774 104.889V99.344H182.115V104.799C182.115 105.435 182.293 105.943 182.649 106.321C183.009 106.7 183.467 106.889 184.024 106.889C184.357 106.889 184.696 106.804 185.041 106.634C185.39 106.463 185.681 106.202 185.916 105.85C186.155 105.497 186.274 105.049 186.274 104.503ZM190.071 108.071V99.344H191.366V100.662H191.457C191.616 100.23 191.904 99.88 192.321 99.6111C192.738 99.3421 193.207 99.2077 193.73 99.2077C193.829 99.2077 193.952 99.2095 194.099 99.2133C194.247 99.2171 194.359 99.2228 194.435 99.2304V100.594C194.389 100.583 194.285 100.566 194.122 100.543C193.963 100.516 193.795 100.503 193.616 100.503C193.192 100.503 192.813 100.592 192.48 100.77C192.151 100.944 191.889 101.187 191.696 101.497C191.507 101.804 191.412 102.155 191.412 102.549V108.071H190.071ZM207.661 99.344L204.433 108.071H203.07L199.842 99.344H201.297L203.706 106.299H203.797L206.206 99.344H207.661ZM209.43 108.071V99.344H210.771V108.071H209.43ZM210.112 97.8895C209.851 97.8895 209.625 97.8005 209.436 97.6224C209.25 97.4444 209.158 97.2304 209.158 96.9804C209.158 96.7304 209.25 96.5164 209.436 96.3383C209.625 96.1603 209.851 96.0713 210.112 96.0713C210.374 96.0713 210.597 96.1603 210.783 96.3383C210.972 96.5164 211.067 96.7304 211.067 96.9804C211.067 97.2304 210.972 97.4444 210.783 97.6224C210.597 97.8005 210.374 97.8895 210.112 97.8895ZM216.523 108.253C215.795 108.253 215.153 108.069 214.597 107.702C214.04 107.331 213.604 106.808 213.29 106.134C212.975 105.456 212.818 104.655 212.818 103.73C212.818 102.814 212.975 102.018 213.29 101.344C213.604 100.67 214.042 100.149 214.602 99.7815C215.163 99.4141 215.811 99.2304 216.545 99.2304C217.114 99.2304 217.563 99.3251 217.892 99.5145C218.225 99.7001 218.479 99.9122 218.653 100.151C218.831 100.386 218.97 100.579 219.068 100.73H219.182V96.4349H220.523V108.071H219.227V106.73H219.068C218.97 106.889 218.83 107.09 218.648 107.333C218.466 107.571 218.206 107.785 217.869 107.975C217.532 108.16 217.083 108.253 216.523 108.253ZM216.705 107.049C217.242 107.049 217.697 106.908 218.068 106.628C218.439 106.344 218.722 105.952 218.915 105.452C219.108 104.948 219.205 104.367 219.205 103.708C219.205 103.056 219.11 102.486 218.92 101.997C218.731 101.505 218.451 101.122 218.08 100.85C217.708 100.573 217.25 100.435 216.705 100.435C216.136 100.435 215.663 100.581 215.284 100.872C214.909 101.16 214.627 101.552 214.438 102.049C214.252 102.541 214.159 103.094 214.159 103.708C214.159 104.329 214.254 104.893 214.443 105.401C214.636 105.905 214.92 106.306 215.295 106.605C215.674 106.901 216.144 107.049 216.705 107.049ZM226.824 108.253C225.983 108.253 225.258 108.068 224.648 107.696C224.042 107.321 223.574 106.799 223.244 106.128C222.919 105.454 222.756 104.67 222.756 103.776C222.756 102.882 222.919 102.094 223.244 101.412C223.574 100.727 224.032 100.193 224.619 99.8099C225.21 99.4236 225.9 99.2304 226.688 99.2304C227.142 99.2304 227.591 99.3061 228.034 99.4577C228.477 99.6092 228.881 99.8554 229.244 100.196C229.608 100.533 229.898 100.98 230.114 101.537C230.33 102.094 230.438 102.78 230.438 103.594V104.162H223.71V103.003H229.074C229.074 102.511 228.975 102.071 228.778 101.685C228.585 101.299 228.309 100.994 227.949 100.77C227.593 100.547 227.172 100.435 226.688 100.435C226.153 100.435 225.691 100.568 225.301 100.833C224.915 101.094 224.617 101.435 224.409 101.855C224.201 102.276 224.097 102.727 224.097 103.208V103.98C224.097 104.639 224.21 105.198 224.438 105.657C224.669 106.111 224.989 106.458 225.398 106.696C225.807 106.931 226.282 107.049 226.824 107.049C227.176 107.049 227.494 106.999 227.778 106.901C228.066 106.799 228.314 106.647 228.523 106.446C228.731 106.242 228.892 105.988 229.006 105.685L230.301 106.049C230.165 106.488 229.936 106.874 229.614 107.208C229.292 107.537 228.894 107.795 228.42 107.98C227.947 108.162 227.415 108.253 226.824 108.253ZM236.023 108.253C235.235 108.253 234.544 108.066 233.949 107.691C233.358 107.316 232.896 106.791 232.562 106.117C232.233 105.443 232.068 104.655 232.068 103.753C232.068 102.844 232.233 102.05 232.562 101.372C232.896 100.694 233.358 100.168 233.949 99.7929C234.544 99.4179 235.235 99.2304 236.023 99.2304C236.811 99.2304 237.5 99.4179 238.091 99.7929C238.686 100.168 239.148 100.694 239.477 101.372C239.811 102.05 239.977 102.844 239.977 103.753C239.977 104.655 239.811 105.443 239.477 106.117C239.148 106.791 238.686 107.316 238.091 107.691C237.5 108.066 236.811 108.253 236.023 108.253ZM236.023 107.049C236.621 107.049 237.114 106.895 237.5 106.588C237.886 106.282 238.172 105.878 238.358 105.378C238.544 104.878 238.636 104.336 238.636 103.753C238.636 103.17 238.544 102.626 238.358 102.122C238.172 101.619 237.886 101.211 237.5 100.901C237.114 100.59 236.621 100.435 236.023 100.435C235.424 100.435 234.932 100.59 234.545 100.901C234.159 101.211 233.873 101.619 233.688 102.122C233.502 102.626 233.409 103.17 233.409 103.753C233.409 104.336 233.502 104.878 233.688 105.378C233.873 105.878 234.159 106.282 234.545 106.588C234.932 106.895 235.424 107.049 236.023 107.049Z" fill="white"/>
</svg>
